# xmcd CD database file
#
# Track frame offsets:
#	150
#	51835
#	99608
#	117482
#	130815
#	154744
#	209359
#	249727
#	263322
#	301895
#	324421
#	348403
#
# Disc length: 4796 seconds
#
# Revision: 2
# Processed by: cddbd v1.5.2PL0 Copyright (c) Steve Scherf et al.
# Submitted via: CDex 1.70beta2
#
DISCID=a612ba0c
DTITLE=Oliver Bottini - CD1
DYEAR=2008
DGENRE=R&B
TTITLE0=01 Brahms weckte ihn
TTITLE1=02 Und wenn er noch da ist ?
TTITLE2=03 Oberschlesier, nicht Polen
TTITLE3=04 'Nicht wieder ein Mönch', sagte Bermann
TTITLE4=05 Luise sass auf dem Fensterbrett
TTITLE5=06 Ein Bermann-Satz
TTITLE6=07 Sie sass mit Paul Niemann
TTITLE7=08 Aus dem Haus erklang
TTITLE8=09 Im Garten
TTITLE9=10 Als es dunkel war
TTITLE10=11 Langsam folgte sie
TTITLE11=12 Um zehn war sie im Büro
EXTD=gelesen von Martina Gedeck YEAR: 2008
EXTT0=
EXTT1=
EXTT2=
EXTT3=
EXTT4=
EXTT5=
EXTT6=
EXTT7=
EXTT8=
EXTT9=
EXTT10=
EXTT11=
PLAYORDER=
